<svg width="120" height="46" viewBox="0 0 120 46" fill="none" xmlns="http://www.w3.org/2000/svg">
<g opacity="0.6">
<path d="M0 4.88083C0.0151353 4.88782 0.0285409 4.89481 0.0436761 4.90138C0.138379 4.89835 0.199352 4.89133 0.131892 4.88782C0.0877843 4.88433 0.0436758 4.88259 0 4.88083ZM64.1351 10.217C60.0408 10.4268 58.8161 10.6506 55.2871 11.4172C51.6282 12.3203 47.7381 13.6128 44.5964 14.8131C43.0388 15.4088 42.1791 15.7677 41.3597 16.1585C40.8412 16.4081 40.0559 16.7494 39.6131 16.9199C38.8615 17.2119 38.6941 17.2429 37.0016 17.4068C28.7586 18.2024 21.0695 19.3227 17.6282 20.2292C14.4865 21.0776 11.2212 22.319 9.28564 25.0767C8.7451 25.898 8.08607 27.2722 8.03029 27.6888L7.98834 28.0148L8.20932 27.5677C9.36132 25.2406 11.8681 23.0857 14.8346 21.8731C16.6924 21.2398 18.2803 20.7703 19.9205 20.5059C21.3817 20.2187 23.0271 20.0172 24.3819 19.8502C26.6267 19.5648 30.4208 19.1775 32.3395 19.0355C41.6792 18.3938 51.4479 18.4568 59.9898 18.848C64.6739 19.0665 69.4631 19.2728 73.9357 19.4879C76.5965 19.6177 79.9747 19.7082 79.7636 19.6452C79.5608 19.5854 74.9105 19.133 71.806 18.8716C70.1926 18.7369 67.1353 18.462 65.0138 18.264C56.9476 17.5091 52.4749 17.2394 45.8937 17.1114L43.2516 17.0602L43.8042 16.7971C48.2587 14.8865 52.6336 13.2526 56.686 12.1752C59.4276 11.4889 62.5861 11.2957 64.8685 11.224C66.1507 11.1847 70.049 11.4478 71.5643 11.6375C71.8531 11.6734 72.5762 11.7621 73.1725 11.8338C75.3515 12.0982 78.0793 12.6311 80.4867 13.2627C82.245 13.6709 84.0625 14.3283 85.5916 14.8918C88.8175 16.2695 92.2415 17.861 95.1976 19.261C97.4848 20.3997 99.7602 21.3561 101.909 22.1586C104.992 23.1779 109.27 23.1539 111.811 21.8731C113.24 21.0212 113.196 20.8661 111.493 21.3185C110.48 21.4806 109.978 21.5147 108.581 21.513C106.547 21.513 104.88 21.2861 103.487 20.8232C102.296 20.4272 101.357 20.0823 101.083 19.9407C99.0139 19.0766 96.8448 18.1018 95.1976 17.3129C91.8549 15.7983 91.3801 15.6431 86.3548 13.5975C84.6013 12.9725 83.5202 12.6394 81.4121 12.0729C78.7198 11.3486 77.2992 11.0466 75.3429 10.7804C71.6421 10.2782 66.5169 10.0648 64.1351 10.217Z" fill="url(#paint0_linear_1_3)"/>
<path d="M21.8081 42.6342C21.8081 42.5161 21.8324 42.4137 21.8809 42.3272C21.9602 42.1829 22.0945 42.1108 22.2838 42.1108C22.4104 42.1108 22.5081 42.1314 22.5767 42.1726V41.9521C22.4974 41.9219 22.3998 41.9068 22.2838 41.9068C22.0637 41.9068 21.8951 41.9858 21.7779 42.1438C21.6809 42.2757 21.6324 42.4391 21.6324 42.6342C21.6324 42.8266 21.7058 42.9942 21.8525 43.137C21.9401 43.2208 22.0779 43.3129 22.2661 43.4132C22.2708 43.4145 22.2749 43.4166 22.2785 43.4194C22.5116 43.5416 22.6672 43.6433 22.7453 43.7243C22.8554 43.8397 22.9104 43.9909 22.9104 44.1777C22.9104 44.3673 22.8571 44.517 22.7506 44.6269C22.643 44.7368 22.4974 44.7925 22.314 44.7938H22.3051C22.1465 44.7938 22.0288 44.7664 21.9519 44.7114V44.9381C22.0418 44.9779 22.1596 44.9979 22.3051 44.9979H22.314C22.5483 44.9965 22.7358 44.9216 22.8767 44.7732C23.0163 44.6249 23.0861 44.4264 23.0861 44.1777C23.0861 43.929 23.011 43.7264 22.8607 43.5698C22.7696 43.475 22.5992 43.3623 22.3495 43.2318C22.3459 43.2305 22.3365 43.2257 22.3211 43.2174C22.1554 43.1295 22.0359 43.0491 21.9625 42.9763C21.8596 42.8746 21.8081 42.7606 21.8081 42.6342Z" fill="white" stroke="white" stroke-width="0.741086"/>
<path d="M25.0972 41.9686L25.2588 42.1726H25.8836V44.9298H26.0593V42.1726H26.693L26.8527 41.9706V41.9686H25.0972Z" fill="white" stroke="white" stroke-width="0.741086"/>
<path d="M29.8526 44.9978C29.5485 44.9978 29.3083 44.8831 29.132 44.6537C28.9557 44.4242 28.8675 44.1117 28.8675 43.716V41.9727H29.0432V43.716C29.0432 44.054 29.1148 44.3178 29.258 44.5074C29.4012 44.6983 29.5994 44.7938 29.8526 44.7938C30.1058 44.7938 30.3041 44.6983 30.4472 44.5074C30.5904 44.3178 30.662 44.054 30.662 43.716V41.9727H30.8377V43.716C30.8377 44.1117 30.7496 44.4242 30.5733 44.6537C30.3969 44.8831 30.1567 44.9978 29.8526 44.9978Z" fill="white" stroke="white" stroke-width="0.741086"/>
<path d="M34.2902 44.565C34.2002 44.6722 34.0766 44.7258 33.9192 44.7258H33.0441V42.1705H33.6778C33.8577 42.1705 34.0109 42.2158 34.1375 42.3065C34.2878 42.415 34.3665 42.5723 34.3736 42.7784C34.3772 42.8745 34.3837 43.036 34.3931 43.2626C34.4109 43.6954 34.4209 43.9887 34.4233 44.1426C34.4269 44.3157 34.3825 44.4565 34.2902 44.565ZM34.5689 43.2544C34.5594 43.0318 34.5529 42.8704 34.5493 42.7701C34.541 42.5311 34.4576 42.3381 34.2991 42.1911C34.1405 42.0441 33.9358 41.9692 33.6849 41.9665L32.8684 41.9685V44.9298H33.9192C34.1263 44.9298 34.292 44.8556 34.4162 44.7072C34.5428 44.5575 34.6038 44.3679 34.599 44.1385C34.5967 43.9818 34.5866 43.6872 34.5689 43.2544Z" fill="white" stroke="white" stroke-width="0.741086"/>
<path d="M36.7167 44.9298H36.8924V41.9727H36.7167V44.9298Z" fill="white" stroke="white" stroke-width="0.741086"/>
<path d="M40.1941 42.1129C39.897 42.1129 39.6551 42.2379 39.4681 42.4879C39.2799 42.738 39.1859 43.0601 39.1859 43.4544C39.1859 43.8748 39.2752 44.2031 39.4539 44.4394C39.6314 44.6771 39.8781 44.7959 40.1941 44.7959C40.51 44.7959 40.7573 44.6771 40.936 44.4394C41.1135 44.2031 41.2023 43.8748 41.2023 43.4544C41.2023 43.0601 41.1088 42.738 40.9218 42.4879C40.7337 42.2379 40.4911 42.1129 40.1941 42.1129ZM40.1941 44.9999C39.8296 44.9999 39.5409 44.8612 39.3279 44.5837C39.116 44.3075 39.0101 43.9311 39.0101 43.4544C39.0101 43.0065 39.122 42.637 39.3456 42.3457C39.5681 42.0545 39.8509 41.9089 40.1941 41.9089C40.5372 41.9089 40.8206 42.0545 41.0443 42.3457C41.2668 42.637 41.378 43.0065 41.378 43.4544C41.378 43.9311 41.2721 44.3075 41.0603 44.5837C40.8484 44.8612 40.5597 44.9999 40.1941 44.9999Z" fill="white" stroke="white" stroke-width="0.741086"/>
<path d="M47.4384 43.2277C47.3591 43.295 47.2532 43.3286 47.1207 43.3286H46.2634V42.1726H47.1384C47.3361 42.1726 47.4769 42.2481 47.5609 42.3993C47.6153 42.4968 47.6425 42.6163 47.6425 42.7578C47.6425 42.9543 47.5745 43.1109 47.4384 43.2277ZM46.0876 41.9686V44.9298H46.2634V43.5326H47.1207C47.2923 43.5326 47.4325 43.4859 47.5414 43.3925C47.726 43.2345 47.8183 43.023 47.8183 42.7578C47.8183 42.5174 47.7567 42.3258 47.6337 42.1829C47.5106 42.04 47.3455 41.9686 47.1384 41.9686H46.0876Z" fill="white" stroke="white" stroke-width="0.741086"/>
<path d="M49.936 44.9298H50.1117V41.9727H49.936V44.9298Z" fill="white" stroke="white" stroke-width="0.741086"/>
<path d="M53.7967 41.9665L52.2471 41.9685V44.9256L53.637 44.9298L53.7949 44.7258H52.4229V43.5697H53.4648L53.621 43.3657H52.4229V42.1705H53.6405L53.7967 41.9685V41.9665Z" fill="white" stroke="white" stroke-width="0.741086"/>
<path d="M55.8256 41.9686V44.9298H57.2154L57.3734 44.7258H56.0013V41.9686H55.8256Z" fill="white" stroke="white" stroke-width="0.741086"/>
<path d="M60.9679 41.9665L59.4183 41.9685V44.9256L60.8082 44.9298L60.9661 44.7258H59.5941V43.5697H60.636L60.7922 43.3657H59.5941V42.1705H60.8117L60.9679 41.9685V41.9665Z" fill="white" stroke="white" stroke-width="0.741086"/>
<path d="M64.1808 43.4338L64.3334 43.6295L64.3352 43.6378H64.8411V44.1324L65.0168 44.3611V43.4338H64.1808ZM64.999 44.6352C64.7872 44.877 64.5144 44.9979 64.1808 44.9979C63.8163 44.9979 63.5276 44.8591 63.3146 44.5816C63.1027 44.3055 62.9968 43.929 62.9968 43.4523C62.9968 43.0045 63.1087 42.6349 63.3323 42.3437C63.5548 42.0524 63.8376 41.9068 64.1808 41.9068C64.479 41.9068 64.7298 42.005 64.9333 42.2015L64.7665 42.3045C64.6067 42.1754 64.4115 42.1108 64.1808 42.1108C63.8837 42.1108 63.6417 42.2358 63.4548 42.4859C63.2666 42.7359 63.1726 43.058 63.1726 43.4523C63.1726 43.8727 63.2619 44.2011 63.4406 44.4373C63.6181 44.675 63.8648 44.7938 64.1808 44.7938C64.4423 44.7938 64.6582 44.7107 64.8286 44.5445L64.999 44.6352Z" fill="white" stroke="white" stroke-width="0.741086"/>
<path d="M68.7799 41.9727V44.87L67.3936 41.9727H67.0475V44.9298H67.2232V42.0366L68.6077 44.9298H68.9556V41.9727H68.7799Z" fill="white" stroke="white" stroke-width="0.741086"/>
<path d="M71.9821 41.9727L70.9846 44.9298H71.1727L71.3662 44.3549H72.9264L73.1199 44.9298H73.308L72.3123 41.9727H71.9821ZM72.1472 42.0407L72.8572 44.1509H71.4354L72.1472 42.0407Z" fill="white" stroke="white" stroke-width="0.741086"/>
<path d="M76.5173 44.7938C76.2013 44.7938 75.9546 44.675 75.7771 44.4373C75.5984 44.2011 75.5091 43.8727 75.5091 43.4523C75.5091 43.0567 75.6032 42.7345 75.7913 42.4859C75.9783 42.2358 76.2203 42.1108 76.5173 42.1108C76.748 42.1108 76.9433 42.1754 77.103 42.3045L77.2699 42.2015C77.0664 42.005 76.8155 41.9068 76.5173 41.9068C76.1741 41.9068 75.8913 42.0524 75.6688 42.3437C75.4452 42.6349 75.3334 43.0045 75.3334 43.4523C75.3334 43.929 75.4393 44.3055 75.6511 44.5816C75.8641 44.8591 76.1528 44.9979 76.5173 44.9979C76.851 44.9979 77.1238 44.877 77.3356 44.6352L77.1652 44.5445C76.9948 44.7107 76.7788 44.7938 76.5173 44.7938Z" fill="white" stroke="white" stroke-width="0.741086"/>
<path d="M80.7029 41.9727V43.8644C80.7029 44.1557 80.6413 44.383 80.5183 44.5465C80.3952 44.7114 80.2248 44.7938 80.0071 44.7938C79.8213 44.7938 79.6692 44.7327 79.5509 44.6104L79.3823 44.699C79.5396 44.8982 79.7479 44.9978 80.0071 44.9978C80.2757 44.9978 80.4881 44.8962 80.6443 44.6928C80.8005 44.4909 80.8786 44.2147 80.8786 43.8644V41.9727H80.7029Z" fill="white" stroke="white" stroke-width="0.741086"/>
<path d="M82.9697 44.9298H83.1454V41.9727H82.9697V44.9298Z" fill="white" stroke="white" stroke-width="0.741086"/>
<path d="M88.9396 41.9727L87.9421 44.9298H88.1302L88.3237 44.3549H89.8839L90.0774 44.9298H90.2655L89.2698 41.9727H88.9396ZM89.1047 42.0407L89.8147 44.1509H88.3929L89.1047 42.0407Z" fill="white" stroke="white" stroke-width="0.741086"/>
<path d="M93.276 44.9978C92.9719 44.9978 92.7317 44.8831 92.5554 44.6537C92.3791 44.4242 92.2909 44.1117 92.2909 43.716V41.9727H92.4666V43.716C92.4666 44.054 92.5382 44.3178 92.6814 44.5074C92.8246 44.6983 93.0228 44.7938 93.276 44.7938C93.5293 44.7938 93.7275 44.6983 93.8707 44.5074C94.0139 44.3178 94.0854 44.054 94.0854 43.716V41.9727H94.2612V43.716C94.2612 44.1117 94.173 44.4242 93.9967 44.6537C93.8204 44.8831 93.5802 44.9978 93.276 44.9978Z" fill="white" stroke="white" stroke-width="0.741086"/>
<path d="M96.2741 41.9686L96.4356 42.1726H97.0604V44.9298H97.2362V42.1726H97.8698L98.0296 41.9706V41.9686H96.2741Z" fill="white" stroke="white" stroke-width="0.741086"/>
<path d="M18.0258 31.7643H18.0346V31.3433H18.0258V28.6454H19.7938C20.2512 28.6454 20.606 28.7571 20.8582 28.9805C21.1338 29.2096 21.2716 29.5475 21.2716 29.9943C21.2716 30.4411 21.1338 30.7819 20.8582 31.0168C20.606 31.2344 20.2512 31.3433 19.7938 31.3433H19.1341V31.7643H19.8466C20.4037 31.7643 20.8552 31.6096 21.2012 31.3003C21.5648 30.9795 21.7466 30.5442 21.7466 29.9943C21.7466 29.4444 21.5648 29.0091 21.2012 28.6883C20.8552 28.3848 20.4037 28.233 19.8466 28.233H17.5508V34.359H18.0258V31.7643Z" fill="url(#paint1_linear_1_3)"/>
<path d="M33.7259 32.3723C33.7259 32.968 33.5265 33.4578 33.1277 33.8415C32.7231 34.2196 32.207 34.4086 31.5796 34.4086C30.9521 34.4086 30.4361 34.2196 30.0314 33.8415C29.6327 33.4578 29.4333 32.968 29.4333 32.3723V28.2396H29.9083V32.3122C29.9083 32.822 30.0608 33.2286 30.3657 33.5322C30.6706 33.8415 31.0753 33.9962 31.5796 33.9962C32.0839 33.9962 32.4885 33.8415 32.7935 33.5322C33.0984 33.2286 33.2509 32.822 33.2509 32.3122V28.2396H33.7259V32.3723Z" fill="url(#paint2_linear_1_3)"/>
<path d="M42.421 28.6454H44.2682C44.6904 28.6454 45.0217 28.7456 45.2622 28.9461C45.5202 29.1638 45.6492 29.4759 45.6492 29.8826C45.6492 30.295 45.5202 30.6101 45.2622 30.8277C45.0217 31.0282 44.6904 31.1285 44.2682 31.1285H43.5205V31.5409H44.145L45.6404 34.359H46.2034L44.6816 31.5323C45.1332 31.4578 45.485 31.2774 45.7372 30.991C46.0011 30.7046 46.133 30.3323 46.133 29.874C46.133 29.3585 45.96 28.9518 45.614 28.654C45.2856 28.3733 44.8575 28.233 44.3298 28.233H41.946V34.359H42.421V28.6454Z" fill="url(#paint3_linear_1_3)"/>
<path d="M54.1133 28.2396H57.9133V28.652H54.5883V31.0663H57.4207V31.4788H54.5883V33.9446H57.9133V34.357H54.1133V28.2396Z" fill="url(#paint4_linear_1_3)"/>
<path d="M78.5214 32.6215C78.4158 33.1714 78.1725 33.6067 77.7913 33.9275C77.4101 34.2483 76.9439 34.4086 76.3927 34.4086C75.777 34.4086 75.255 34.1996 74.827 33.7814C74.5631 33.5237 74.3959 33.2115 74.3256 32.8449C74.2728 32.5871 74.2464 32.0716 74.2464 31.2983C74.2464 30.5251 74.2728 30.0067 74.3256 29.7432C74.3959 29.3823 74.5631 29.073 74.827 28.8153C75.255 28.3971 75.777 28.188 76.3927 28.188C76.9498 28.188 77.4189 28.3484 77.8001 28.6692C78.1754 28.9842 78.4158 29.4196 78.5214 29.9752H78.0376C77.9438 29.5513 77.7532 29.2162 77.4658 28.9699C77.1726 28.7236 76.8149 28.6005 76.3927 28.6005C75.9236 28.6005 75.5277 28.758 75.2052 29.073C74.9941 29.2792 74.8563 29.5427 74.7918 29.8635C74.7449 30.1155 74.7214 30.5938 74.7214 31.2983C74.7214 32.0029 74.7449 32.4812 74.7918 32.7332C74.8563 33.054 74.9941 33.3175 75.2052 33.5237C75.5277 33.8387 75.9236 33.9962 76.3927 33.9962C76.8149 33.9962 77.1756 33.8731 77.4746 33.6268C77.7678 33.3805 77.9614 33.0454 78.0552 32.6215H78.5214Z" fill="url(#paint5_linear_1_3)"/>
<path d="M87.9225 28.2568L85.6267 34.3571H86.1369L86.6823 32.8707H88.811L88.6614 32.4668H86.8318L88.1336 28.8754L89.0836 31.4788L89.2244 31.8568L89.4443 32.4668L89.585 32.8707H89.5938L90.1392 34.3571H90.6494L88.3447 28.2568H87.9225Z" fill="url(#paint6_linear_1_3)"/>
<path d="M98.6061 28.6454H100.453C100.876 28.6454 101.207 28.7456 101.447 28.9461C101.705 29.1638 101.834 29.4759 101.834 29.8826C101.834 30.295 101.705 30.6101 101.447 30.8277C101.207 31.0282 100.876 31.1285 100.453 31.1285H99.7056V31.5409H100.33L101.826 34.359H102.388L100.867 31.5323C101.318 31.4578 101.67 31.2774 101.922 30.991C102.186 30.7046 102.318 30.3323 102.318 29.874C102.318 29.3585 102.145 28.9518 101.799 28.654C101.471 28.3733 101.043 28.233 100.515 28.233H98.1311V34.359H98.6061V28.6454Z" fill="url(#paint7_linear_1_3)"/>
<path fill-rule="evenodd" clip-rule="evenodd" d="M0.806213 0V43.9398H18.4063V43.2807H1.421V0.59756H118.416V43.2807H101.078V43.9398H119.044V0H0.806213Z" fill="url(#paint8_linear_1_3)"/>
</g>
<defs>
<linearGradient id="paint0_linear_1_3" x1="7.75249" y1="17.5187" x2="112.688" y2="16.6119" gradientUnits="userSpaceOnUse">
<stop stop-color="#E6A478"/>
<stop offset="0.231657" stop-color="#FFCCAB"/>
<stop offset="0.578315" stop-color="#FFBC88"/>
<stop offset="0.817747" stop-color="#FFDBC1"/>
<stop offset="1" stop-color="#DDA782"/>
</linearGradient>
<linearGradient id="paint1_linear_1_3" x1="0.779767" y1="37.1956" x2="76.5352" y2="36.5183" gradientUnits="userSpaceOnUse">
<stop stop-color="#E6A478"/>
<stop offset="0.231657" stop-color="#FFCCAB"/>
<stop offset="0.578315" stop-color="#FFBC88"/>
<stop offset="0.817747" stop-color="#FFDBC1"/>
<stop offset="1" stop-color="#DDA782"/>
</linearGradient>
<linearGradient id="paint2_linear_1_3" x1="0.779784" y1="37.1936" x2="76.5353" y2="36.5162" gradientUnits="userSpaceOnUse">
<stop stop-color="#E6A478"/>
<stop offset="0.231657" stop-color="#FFCCAB"/>
<stop offset="0.578315" stop-color="#FFBC88"/>
<stop offset="0.817747" stop-color="#FFDBC1"/>
<stop offset="1" stop-color="#DDA782"/>
</linearGradient>
<linearGradient id="paint3_linear_1_3" x1="0.779797" y1="37.1956" x2="76.5353" y2="36.5183" gradientUnits="userSpaceOnUse">
<stop stop-color="#E6A478"/>
<stop offset="0.231657" stop-color="#FFCCAB"/>
<stop offset="0.578315" stop-color="#FFBC88"/>
<stop offset="0.817747" stop-color="#FFDBC1"/>
<stop offset="1" stop-color="#DDA782"/>
</linearGradient>
<linearGradient id="paint4_linear_1_3" x1="0.779771" y1="37.1936" x2="76.5352" y2="36.5162" gradientUnits="userSpaceOnUse">
<stop stop-color="#E6A478"/>
<stop offset="0.231657" stop-color="#FFCCAB"/>
<stop offset="0.578315" stop-color="#FFBC88"/>
<stop offset="0.817747" stop-color="#FFDBC1"/>
<stop offset="1" stop-color="#DDA782"/>
</linearGradient>
<linearGradient id="paint5_linear_1_3" x1="0.779733" y1="37.1937" x2="76.5353" y2="36.5163" gradientUnits="userSpaceOnUse">
<stop stop-color="#E6A478"/>
<stop offset="0.231657" stop-color="#FFCCAB"/>
<stop offset="0.578315" stop-color="#FFBC88"/>
<stop offset="0.817747" stop-color="#FFDBC1"/>
<stop offset="1" stop-color="#DDA782"/>
</linearGradient>
<linearGradient id="paint6_linear_1_3" x1="0.779678" y1="37.1937" x2="76.5353" y2="36.5163" gradientUnits="userSpaceOnUse">
<stop stop-color="#E6A478"/>
<stop offset="0.231657" stop-color="#FFCCAB"/>
<stop offset="0.578315" stop-color="#FFBC88"/>
<stop offset="0.817747" stop-color="#FFDBC1"/>
<stop offset="1" stop-color="#DDA782"/>
</linearGradient>
<linearGradient id="paint7_linear_1_3" x1="0.779721" y1="37.1956" x2="76.5353" y2="36.5182" gradientUnits="userSpaceOnUse">
<stop stop-color="#E6A478"/>
<stop offset="0.231657" stop-color="#FFCCAB"/>
<stop offset="0.578315" stop-color="#FFBC88"/>
<stop offset="0.817747" stop-color="#FFDBC1"/>
<stop offset="1" stop-color="#DDA782"/>
</linearGradient>
<linearGradient id="paint8_linear_1_3" x1="7.60097" y1="17.6855" x2="112.536" y2="16.7787" gradientUnits="userSpaceOnUse">
<stop stop-color="#E6A478"/>
<stop offset="0.231657" stop-color="#FFCCAB"/>
<stop offset="0.578315" stop-color="#FFBC88"/>
<stop offset="0.817747" stop-color="#FFDBC1"/>
<stop offset="1" stop-color="#DDA782"/>
</linearGradient>
</defs>
</svg>
